<svg version="1.1" xmlns="http://www.w3.org/2000/svg"
  viewBox="0 0 5993.333129882811 5993.333129882811" width="5993.333129882811"
  height="5993.333129882811">
  <!-- svg-source:excalidraw -->

  <defs>

  </defs>
  <rect x="0" y="0" width="5993.333129882811" height="5993.333129882811"></rect>
  <g stroke-linecap="round"
    transform="translate(10 10) rotate(0 2986.6665649414053 2986.6665649414053)">
    <path
      d="M5973.33 2986.67 C5973.33 3004.44, 5973.17 3022.21, 5972.86 3039.98 C5972.54 3057.74, 5972.06 3075.51, 5971.43 3093.27 C5970.8 3111.03, 5970 3128.78, 5969.05 3146.53 C5968.1 3164.27, 5966.99 3182.01, 5965.72 3199.73 C5964.46 3217.46, 5963.03 3235.17, 5961.45 3252.87 C5959.86 3270.57, 5958.12 3288.26, 5956.22 3305.93 C5954.32 3323.59, 5952.26 3341.25, 5950.05 3358.88 C5947.83 3376.51, 5945.46 3394.12, 5942.93 3411.71 C5940.4 3429.3, 5937.72 3446.87, 5934.88 3464.41 C5932.03 3481.95, 5929.03 3499.47, 5925.88 3516.96 C5922.72 3534.45, 5919.41 3551.91, 5915.95 3569.34 C5912.48 3586.76, 5908.86 3604.16, 5905.08 3621.53 C5901.3 3638.89, 5897.37 3656.22, 5893.28 3673.52 C5889.2 3690.81, 5884.95 3708.07, 5880.56 3725.29 C5876.16 3742.51, 5871.62 3759.69, 5866.91 3776.82 C5862.21 3793.96, 5857.36 3811.06, 5852.35 3828.11 C5847.35 3845.16, 5842.19 3862.17, 5836.88 3879.12 C5831.57 3896.08, 5826.1 3912.99, 5820.49 3929.85 C5814.88 3946.71, 5809.12 3963.53, 5803.21 3980.29 C5797.3 3997.04, 5791.23 4013.75, 5785.02 4030.4 C5778.81 4047.05, 5772.45 4063.65, 5765.95 4080.18 C5759.44 4096.72, 5752.79 4113.2, 5745.99 4129.61 C5739.19 4146.03, 5732.24 4162.39, 5725.15 4178.68 C5718.05 4194.98, 5710.82 4211.21, 5703.43 4227.37 C5696.05 4243.54, 5688.52 4259.64, 5680.86 4275.67 C5673.19 4291.7, 5665.37 4307.66, 5657.42 4323.55 C5649.47 4339.44, 5641.37 4355.26, 5633.13 4371.01 C5624.9 4386.75, 5616.52 4402.43, 5608 4418.02 C5599.48 4433.62, 5590.83 4449.14, 5582.04 4464.58 C5573.24 4480.03, 5564.31 4495.39, 5555.24 4510.67 C5546.18 4525.96, 5536.97 4541.16, 5527.63 4556.28 C5518.29 4571.39, 5508.82 4586.43, 5499.21 4601.38 C5489.6 4616.33, 5479.86 4631.19, 5469.99 4645.97 C5460.12 4660.74, 5450.11 4675.43, 5439.98 4690.03 C5429.84 4704.63, 5419.58 4719.13, 5409.18 4733.55 C5398.79 4747.96, 5388.27 4762.28, 5377.62 4776.51 C5366.97 4790.73, 5356.19 4804.87, 5345.29 4818.9 C5334.39 4832.93, 5323.36 4846.87, 5312.21 4860.71 C5301.06 4874.54, 5289.78 4888.28, 5278.39 4901.92 C5266.99 4915.55, 5255.48 4929.09, 5243.84 4942.52 C5232.2 4955.95, 5220.44 4969.27, 5208.57 4982.49 C5196.69 4995.71, 5184.7 5008.83, 5172.59 5021.83 C5160.48 5034.84, 5148.26 5047.74, 5135.92 5060.53 C5123.58 5073.31, 5111.12 5085.99, 5098.56 5098.56 C5085.99 5111.12, 5073.31 5123.58, 5060.53 5135.92 C5047.74 5148.26, 5034.84 5160.48, 5021.83 5172.59 C5008.83 5184.7, 4995.71 5196.69, 4982.49 5208.57 C4969.27 5220.44, 4955.95 5232.2, 4942.52 5243.84 C4929.09 5255.48, 4915.55 5266.99, 4901.92 5278.39 C4888.28 5289.78, 4874.54 5301.06, 4860.71 5312.21 C4846.87 5323.36, 4832.93 5334.39, 4818.9 5345.29 C4804.87 5356.19, 4790.73 5366.97, 4776.51 5377.62 C4762.28 5388.27, 4747.96 5398.79, 4733.55 5409.18 C4719.13 5419.58, 4704.63 5429.84, 4690.03 5439.98 C4675.43 5450.11, 4660.74 5460.12, 4645.97 5469.99 C4631.19 5479.86, 4616.33 5489.6, 4601.38 5499.21 C4586.43 5508.82, 4571.39 5518.29, 4556.28 5527.63 C4541.16 5536.97, 4525.96 5546.18, 4510.67 5555.24 C4495.39 5564.31, 4480.03 5573.24, 4464.58 5582.04 C4449.14 5590.83, 4433.62 5599.48, 4418.02 5608 C4402.43 5616.52, 4386.75 5624.9, 4371.01 5633.13 C4355.26 5641.37, 4339.44 5649.47, 4323.55 5657.42 C4307.66 5665.37, 4291.7 5673.19, 4275.67 5680.86 C4259.64 5688.52, 4243.54 5696.05, 4227.37 5703.43 C4211.21 5710.82, 4194.98 5718.05, 4178.68 5725.15 C4162.39 5732.24, 4146.03 5739.19, 4129.61 5745.99 C4113.2 5752.79, 4096.72 5759.44, 4080.18 5765.95 C4063.65 5772.45, 4047.05 5778.81, 4030.4 5785.02 C4013.75 5791.23, 3997.04 5797.3, 3980.29 5803.21 C3963.53 5809.12, 3946.71 5814.88, 3929.85 5820.49 C3912.99 5826.1, 3896.08 5831.57, 3879.12 5836.88 C3862.17 5842.19, 3845.16 5847.35, 3828.11 5852.35 C3811.06 5857.36, 3793.96 5862.21, 3776.82 5866.91 C3759.69 5871.62, 3742.51 5876.16, 3725.29 5880.56 C3708.07 5884.95, 3690.81 5889.2, 3673.52 5893.28 C3656.22 5897.37, 3638.89 5901.3, 3621.53 5905.08 C3604.16 5908.86, 3586.76 5912.48, 3569.34 5915.95 C3551.91 5919.41, 3534.45 5922.72, 3516.96 5925.88 C3499.47 5929.03, 3481.95 5932.03, 3464.41 5934.88 C3446.87 5937.72, 3429.3 5940.4, 3411.71 5942.93 C3394.12 5945.46, 3376.51 5947.83, 3358.88 5950.05 C3341.25 5952.26, 3323.59 5954.32, 3305.93 5956.22 C3288.26 5958.12, 3270.57 5959.86, 3252.87 5961.45 C3235.17 5963.03, 3217.46 5964.46, 3199.73 5965.72 C3182.01 5966.99, 3164.27 5968.1, 3146.53 5969.05 C3128.78 5970, 3111.03 5970.8, 3093.27 5971.43 C3075.51 5972.06, 3057.74 5972.54, 3039.98 5972.86 C3022.21 5973.17, 3004.44 5973.33, 2986.67 5973.33 C2968.9 5973.33, 2951.12 5973.17, 2933.36 5972.86 C2915.59 5972.54, 2897.82 5972.06, 2880.07 5971.43 C2862.31 5970.8, 2844.55 5970, 2826.81 5969.05 C2809.06 5968.1, 2791.32 5966.99, 2773.6 5965.72 C2755.88 5964.46, 2738.16 5963.03, 2720.46 5961.45 C2702.76 5959.86, 2685.07 5958.12, 2667.41 5956.22 C2649.74 5954.32, 2632.08 5952.26, 2614.45 5950.05 C2596.82 5947.83, 2579.21 5945.46, 2561.62 5942.93 C2544.03 5940.4, 2526.46 5937.72, 2508.92 5934.88 C2491.38 5932.03, 2473.86 5929.03, 2456.37 5925.88 C2438.89 5922.72, 2421.43 5919.41, 2404 5915.95 C2386.57 5912.48, 2369.17 5908.86, 2351.8 5905.08 C2334.44 5901.3, 2317.11 5897.37, 2299.82 5893.28 C2282.52 5889.2, 2265.26 5884.95, 2248.04 5880.56 C2230.83 5876.16, 2213.65 5871.62, 2196.51 5866.91 C2179.37 5862.21, 2162.28 5857.36, 2145.23 5852.35 C2128.18 5847.35, 2111.17 5842.19, 2094.21 5836.88 C2077.25 5831.57, 2060.34 5826.1, 2043.48 5820.49 C2026.62 5814.88, 2009.81 5809.12, 1993.05 5803.21 C1976.29 5797.3, 1959.58 5791.23, 1942.93 5785.02 C1926.28 5778.81, 1909.69 5772.45, 1893.15 5765.95 C1876.62 5759.44, 1860.14 5752.79, 1843.72 5745.99 C1827.3 5739.19, 1810.94 5732.24, 1794.65 5725.15 C1778.36 5718.05, 1762.12 5710.82, 1745.96 5703.43 C1729.8 5696.05, 1713.7 5688.52, 1697.67 5680.86 C1681.64 5673.19, 1665.67 5665.37, 1649.78 5657.42 C1633.89 5649.47, 1618.07 5641.37, 1602.33 5633.13 C1586.58 5624.9, 1570.91 5616.52, 1555.31 5608 C1539.71 5599.48, 1524.19 5590.83, 1508.75 5582.04 C1493.31 5573.24, 1477.94 5564.31, 1462.66 5555.24 C1447.38 5546.18, 1432.17 5536.97, 1417.06 5527.63 C1401.94 5518.29, 1386.9 5508.82, 1371.95 5499.21 C1357 5489.6, 1342.14 5479.86, 1327.36 5469.99 C1312.59 5460.12, 1297.9 5450.11, 1283.3 5439.98 C1268.71 5429.84, 1254.2 5419.58, 1239.79 5409.18 C1225.37 5398.79, 1211.05 5388.27, 1196.82 5377.62 C1182.6 5366.97, 1168.47 5356.19, 1154.43 5345.29 C1140.4 5334.39, 1126.46 5323.36, 1112.63 5312.21 C1098.79 5301.06, 1085.05 5289.78, 1071.42 5278.39 C1057.78 5266.99, 1044.25 5255.48, 1030.82 5243.84 C1017.39 5232.2, 1004.06 5220.44, 990.84 5208.57 C977.62 5196.69, 964.5 5184.7, 951.5 5172.59 C938.49 5160.48, 925.59 5148.26, 912.81 5135.92 C900.02 5123.58, 887.34 5111.12, 874.77 5098.56 C862.21 5085.99, 849.75 5073.31, 837.42 5060.53 C825.08 5047.74, 812.85 5034.84, 800.74 5021.83 C788.63 5008.83, 776.64 4995.71, 764.76 4982.49 C752.89 4969.27, 741.13 4955.95, 729.49 4942.52 C717.86 4929.09, 706.34 4915.55, 694.94 4901.92 C683.55 4888.28, 672.27 4874.54, 661.12 4860.71 C649.97 4846.87, 638.95 4832.93, 628.04 4818.9 C617.14 4804.87, 606.37 4790.73, 595.72 4776.51 C585.07 4762.28, 574.54 4747.96, 564.15 4733.55 C553.76 4719.13, 543.49 4704.63, 533.36 4690.03 C523.22 4675.43, 513.22 4660.74, 503.34 4645.97 C493.47 4631.19, 483.73 4616.33, 474.12 4601.38 C464.52 4586.43, 455.04 4571.39, 445.7 4556.28 C436.36 4541.16, 427.16 4525.96, 418.09 4510.67 C409.02 4495.39, 400.09 4480.03, 391.3 4464.58 C382.5 4449.14, 373.85 4433.62, 365.33 4418.02 C356.82 4402.43, 348.44 4386.75, 340.2 4371.01 C331.96 4355.26, 323.87 4339.44, 315.91 4323.55 C307.96 4307.66, 300.15 4291.7, 292.48 4275.67 C284.81 4259.64, 277.28 4243.54, 269.9 4227.37 C262.52 4211.21, 255.28 4194.98, 248.19 4178.68 C241.09 4162.39, 234.15 4146.03, 227.35 4129.61 C220.55 4113.2, 213.89 4096.72, 207.39 4080.18 C200.88 4063.65, 194.52 4047.05, 188.31 4030.4 C182.1 4013.75, 176.04 3997.04, 170.13 3980.29 C164.21 3963.53, 158.45 3946.71, 152.84 3929.85 C147.23 3912.99, 141.77 3896.08, 136.46 3879.12 C131.15 3862.17, 125.99 3845.16, 120.98 3828.11 C115.97 3811.06, 111.12 3793.96, 106.42 3776.82 C101.72 3759.69, 97.17 3742.51, 92.77 3725.29 C88.38 3708.07, 84.14 3690.81, 80.05 3673.52 C75.96 3656.22, 72.03 3638.89, 68.25 3621.53 C64.48 3604.16, 60.85 3586.76, 57.39 3569.34 C53.92 3551.91, 50.61 3534.45, 47.45 3516.96 C44.3 3499.47, 41.3 3481.95, 38.46 3464.41 C35.62 3446.87, 32.93 3429.3, 30.4 3411.71 C27.87 3394.12, 25.5 3376.51, 23.28 3358.88 C21.07 3341.25, 19.01 3323.59, 17.11 3305.93 C15.21 3288.26, 13.47 3270.57, 11.89 3252.87 C10.3 3235.17, 8.88 3217.46, 7.61 3199.73 C6.34 3182.01, 5.23 3164.27, 4.28 3146.53 C3.33 3128.78, 2.54 3111.03, 1.9 3093.27 C1.27 3075.51, 0.79 3057.74, 0.48 3039.98 C0.16 3022.21, 0 3004.44, 0 2986.67 C0 2968.9, 0.16 2951.12, 0.48 2933.36 C0.79 2915.59, 1.27 2897.82, 1.9 2880.07 C2.54 2862.31, 3.33 2844.55, 4.28 2826.81 C5.23 2809.06, 6.34 2791.32, 7.61 2773.6 C8.88 2755.88, 10.3 2738.16, 11.89 2720.46 C13.47 2702.76, 15.21 2685.07, 17.11 2667.41 C19.01 2649.74, 21.07 2632.08, 23.28 2614.45 C25.5 2596.82, 27.87 2579.21, 30.4 2561.62 C32.93 2544.03, 35.62 2526.46, 38.46 2508.92 C41.3 2491.38, 44.3 2473.86, 47.45 2456.37 C50.61 2438.89, 53.92 2421.43, 57.39 2404 C60.85 2386.57, 64.48 2369.17, 68.25 2351.8 C72.03 2334.44, 75.96 2317.11, 80.05 2299.82 C84.14 2282.52, 88.38 2265.26, 92.77 2248.04 C97.17 2230.83, 101.72 2213.65, 106.42 2196.51 C111.12 2179.37, 115.97 2162.28, 120.98 2145.23 C125.99 2128.18, 131.15 2111.17, 136.46 2094.21 C141.77 2077.25, 147.23 2060.34, 152.84 2043.48 C158.45 2026.62, 164.21 2009.81, 170.13 1993.05 C176.04 1976.29, 182.1 1959.58, 188.31 1942.93 C194.52 1926.28, 200.88 1909.69, 207.39 1893.15 C213.89 1876.62, 220.55 1860.14, 227.35 1843.72 C234.15 1827.3, 241.09 1810.94, 248.19 1794.65 C255.28 1778.36, 262.52 1762.12, 269.9 1745.96 C277.28 1729.8, 284.81 1713.7, 292.48 1697.67 C300.15 1681.64, 307.96 1665.67, 315.91 1649.78 C323.87 1633.89, 331.96 1618.07, 340.2 1602.33 C348.44 1586.58, 356.82 1570.91, 365.33 1555.31 C373.85 1539.71, 382.5 1524.19, 391.3 1508.75 C400.09 1493.31, 409.02 1477.94, 418.09 1462.66 C427.16 1447.38, 436.36 1432.17, 445.7 1417.06 C455.04 1401.94, 464.52 1386.9, 474.12 1371.95 C483.73 1357, 493.47 1342.14, 503.34 1327.36 C513.22 1312.59, 523.22 1297.9, 533.36 1283.3 C543.49 1268.71, 553.76 1254.2, 564.15 1239.79 C574.54 1225.37, 585.07 1211.05, 595.72 1196.82 C606.37 1182.6, 617.14 1168.47, 628.04 1154.43 C638.95 1140.4, 649.97 1126.46, 661.12 1112.63 C672.27 1098.79, 683.55 1085.05, 694.94 1071.42 C706.34 1057.78, 717.86 1044.25, 729.49 1030.82 C741.13 1017.39, 752.89 1004.06, 764.76 990.84 C776.64 977.62, 788.63 964.5, 800.74 951.5 C812.85 938.49, 825.08 925.59, 837.42 912.81 C849.75 900.02, 862.21 887.34, 874.77 874.77 C887.34 862.21, 900.02 849.75, 912.81 837.42 C925.59 825.08, 938.49 812.85, 951.5 800.74 C964.5 788.63, 977.62 776.64, 990.84 764.76 C1004.06 752.89, 1017.39 741.13, 1030.82 729.49 C1044.25 717.86, 1057.78 706.34, 1071.42 694.94 C1085.05 683.55, 1098.79 672.27, 1112.63 661.12 C1126.46 649.97, 1140.4 638.95, 1154.43 628.04 C1168.47 617.14, 1182.6 606.37, 1196.82 595.72 C1211.05 585.07, 1225.37 574.54, 1239.79 564.15 C1254.2 553.76, 1268.71 543.49, 1283.3 533.36 C1297.9 523.22, 1312.59 513.22, 1327.36 503.34 C1342.14 493.47, 1357 483.73, 1371.95 474.12 C1386.9 464.52, 1401.94 455.04, 1417.06 445.7 C1432.17 436.36, 1447.38 427.16, 1462.66 418.09 C1477.94 409.02, 1493.31 400.09, 1508.75 391.3 C1524.19 382.5, 1539.71 373.85, 1555.31 365.33 C1570.91 356.82, 1586.58 348.44, 1602.33 340.2 C1618.07 331.96, 1633.89 323.87, 1649.78 315.91 C1665.67 307.96, 1681.64 300.15, 1697.67 292.48 C1713.7 284.81, 1729.8 277.28, 1745.96 269.9 C1762.12 262.52, 1778.36 255.28, 1794.65 248.19 C1810.94 241.09, 1827.3 234.15, 1843.72 227.35 C1860.14 220.55, 1876.62 213.89, 1893.15 207.39 C1909.69 200.88, 1926.28 194.52, 1942.93 188.31 C1959.58 182.1, 1976.29 176.04, 1993.05 170.13 C2009.81 164.21, 2026.62 158.45, 2043.48 152.84 C2060.34 147.23, 2077.25 141.77, 2094.21 136.46 C2111.17 131.15, 2128.18 125.99, 2145.23 120.98 C2162.28 115.97, 2179.37 111.12, 2196.51 106.42 C2213.65 101.72, 2230.83 97.17, 2248.04 92.77 C2265.26 88.38, 2282.52 84.14, 2299.82 80.05 C2317.11 75.96, 2334.44 72.03, 2351.8 68.25 C2369.17 64.48, 2386.57 60.85, 2404 57.39 C2421.43 53.92, 2438.89 50.61, 2456.37 47.45 C2473.86 44.3, 2491.38 41.3, 2508.92 38.46 C2526.46 35.62, 2544.03 32.93, 2561.62 30.4 C2579.21 27.87, 2596.82 25.5, 2614.45 23.28 C2632.08 21.07, 2649.74 19.01, 2667.41 17.11 C2685.07 15.21, 2702.76 13.47, 2720.46 11.89 C2738.16 10.3, 2755.88 8.88, 2773.6 7.61 C2791.32 6.34, 2809.06 5.23, 2826.81 4.28 C2844.55 3.33, 2862.31 2.54, 2880.07 1.9 C2897.82 1.27, 2915.59 0.79, 2933.36 0.48 C2951.12 0.16, 2968.9 0, 2986.67 0 C3004.44 0, 3022.21 0.16, 3039.98 0.48 C3057.74 0.79, 3075.51 1.27, 3093.27 1.9 C3111.03 2.54, 3128.78 3.33, 3146.53 4.28 C3164.27 5.23, 3182.01 6.34, 3199.73 7.61 C3217.46 8.88, 3235.17 10.3, 3252.87 11.89 C3270.57 13.47, 3288.26 15.21, 3305.93 17.11 C3323.59 19.01, 3341.25 21.07, 3358.88 23.28 C3376.51 25.5, 3394.12 27.87, 3411.71 30.4 C3429.3 32.93, 3446.87 35.62, 3464.41 38.46 C3481.95 41.3, 3499.47 44.3, 3516.96 47.45 C3534.45 50.61, 3551.91 53.92, 3569.34 57.39 C3586.76 60.85, 3604.16 64.48, 3621.53 68.25 C3638.89 72.03, 3656.22 75.96, 3673.52 80.05 C3690.81 84.14, 3708.07 88.38, 3725.29 92.77 C3742.51 97.17, 3759.69 101.72, 3776.82 106.42 C3793.96 111.12, 3811.06 115.97, 3828.11 120.98 C3845.16 125.99, 3862.17 131.15, 3879.12 136.46 C3896.08 141.77, 3912.99 147.23, 3929.85 152.84 C3946.71 158.45, 3963.53 164.21, 3980.29 170.13 C3997.04 176.04, 4013.75 182.1, 4030.4 188.31 C4047.05 194.52, 4063.65 200.88, 4080.18 207.39 C4096.72 213.89, 4113.2 220.55, 4129.61 227.35 C4146.03 234.15, 4162.39 241.09, 4178.68 248.19 C4194.98 255.28, 4211.21 262.52, 4227.37 269.9 C4243.54 277.28, 4259.64 284.81, 4275.67 292.48 C4291.7 300.15, 4307.66 307.96, 4323.55 315.91 C4339.44 323.87, 4355.26 331.96, 4371.01 340.2 C4386.75 348.44, 4402.43 356.82, 4418.02 365.33 C4433.62 373.85, 4449.14 382.5, 4464.58 391.3 C4480.03 400.09, 4495.39 409.02, 4510.67 418.09 C4525.96 427.16, 4541.16 436.36, 4556.28 445.7 C4571.39 455.04, 4586.43 464.52, 4601.38 474.12 C4616.33 483.73, 4631.19 493.47, 4645.97 503.34 C4660.74 513.22, 4675.43 523.22, 4690.03 533.36 C4704.63 543.49, 4719.13 553.76, 4733.55 564.15 C4747.96 574.54, 4762.28 585.07, 4776.51 595.72 C4790.73 606.37, 4804.87 617.14, 4818.9 628.04 C4832.93 638.95, 4846.87 649.97, 4860.71 661.12 C4874.54 672.27, 4888.28 683.55, 4901.92 694.94 C4915.55 706.34, 4929.09 717.86, 4942.52 729.49 C4955.95 741.13, 4969.27 752.89, 4982.49 764.76 C4995.71 776.64, 5008.83 788.63, 5021.83 800.74 C5034.84 812.85, 5047.74 825.08, 5060.53 837.42 C5073.31 849.75, 5085.99 862.21, 5098.56 874.77 C5111.12 887.34, 5123.58 900.02, 5135.92 912.81 C5148.26 925.59, 5160.48 938.49, 5172.59 951.5 C5184.7 964.5, 5196.69 977.62, 5208.57 990.84 C5220.44 1004.06, 5232.2 1017.39, 5243.84 1030.82 C5255.48 1044.25, 5266.99 1057.78, 5278.39 1071.42 C5289.78 1085.05, 5301.06 1098.79, 5312.21 1112.63 C5323.36 1126.46, 5334.39 1140.4, 5345.29 1154.43 C5356.19 1168.47, 5366.97 1182.6, 5377.62 1196.82 C5388.27 1211.05, 5398.79 1225.37, 5409.18 1239.79 C5419.58 1254.2, 5429.84 1268.71, 5439.98 1283.3 C5450.11 1297.9, 5460.12 1312.59, 5469.99 1327.36 C5479.86 1342.14, 5489.6 1357, 5499.21 1371.95 C5508.82 1386.9, 5518.29 1401.94, 5527.63 1417.06 C5536.97 1432.17, 5546.18 1447.38, 5555.24 1462.66 C5564.31 1477.94, 5573.24 1493.31, 5582.04 1508.75 C5590.83 1524.19, 5599.48 1539.71, 5608 1555.31 C5616.52 1570.91, 5624.9 1586.58, 5633.13 1602.33 C5641.37 1618.07, 5649.47 1633.89, 5657.42 1649.78 C5665.37 1665.67, 5673.19 1681.64, 5680.86 1697.67 C5688.52 1713.7, 5696.05 1729.8, 5703.43 1745.96 C5710.82 1762.12, 5718.05 1778.36, 5725.15 1794.65 C5732.24 1810.94, 5739.19 1827.3, 5745.99 1843.72 C5752.79 1860.14, 5759.44 1876.62, 5765.95 1893.15 C5772.45 1909.69, 5778.81 1926.28, 5785.02 1942.93 C5791.23 1959.58, 5797.3 1976.29, 5803.21 1993.05 C5809.12 2009.81, 5814.88 2026.62, 5820.49 2043.48 C5826.1 2060.34, 5831.57 2077.25, 5836.88 2094.21 C5842.19 2111.17, 5847.35 2128.18, 5852.35 2145.23 C5857.36 2162.28, 5862.21 2179.37, 5866.91 2196.51 C5871.62 2213.65, 5876.16 2230.83, 5880.56 2248.04 C5884.95 2265.26, 5889.2 2282.52, 5893.28 2299.82 C5897.37 2317.11, 5901.3 2334.44, 5905.08 2351.8 C5908.86 2369.17, 5912.48 2386.57, 5915.95 2404 C5919.41 2421.43, 5922.72 2438.89, 5925.88 2456.37 C5929.03 2473.86, 5932.03 2491.38, 5934.88 2508.92 C5937.72 2526.46, 5940.4 2544.03, 5942.93 2561.62 C5945.46 2579.21, 5947.83 2596.82, 5950.05 2614.45 C5952.26 2632.08, 5954.32 2649.74, 5956.22 2667.41 C5958.12 2685.07, 5959.86 2702.76, 5961.45 2720.46 C5963.03 2738.16, 5964.46 2755.88, 5965.72 2773.6 C5966.99 2791.32, 5968.1 2809.06, 5969.05 2826.81 C5970 2844.55, 5970.8 2862.31, 5971.43 2880.07 C5972.06 2897.82, 5972.54 2915.59, 5972.86 2933.36 C5973.17 2951.12, 5973.33 2968.9, 5973.33 2986.67"
      stroke="none" stroke-width="0" fill="#12b886"></path>
    <path
      d="M5973.33 2986.67 C5973.33 3004.44, 5973.17 3022.21, 5972.86 3039.98 C5972.54 3057.74, 5972.06 3075.51, 5971.43 3093.27 C5970.8 3111.03, 5970 3128.78, 5969.05 3146.53 C5968.1 3164.27, 5966.99 3182.01, 5965.72 3199.73 C5964.46 3217.46, 5963.03 3235.17, 5961.45 3252.87 C5959.86 3270.57, 5958.12 3288.26, 5956.22 3305.93 C5954.32 3323.59, 5952.26 3341.25, 5950.05 3358.88 C5947.83 3376.51, 5945.46 3394.12, 5942.93 3411.71 C5940.4 3429.3, 5937.72 3446.87, 5934.88 3464.41 C5932.03 3481.95, 5929.03 3499.47, 5925.88 3516.96 C5922.72 3534.45, 5919.41 3551.91, 5915.95 3569.34 C5912.48 3586.76, 5908.86 3604.16, 5905.08 3621.53 C5901.3 3638.89, 5897.37 3656.22, 5893.28 3673.52 C5889.2 3690.81, 5884.95 3708.07, 5880.56 3725.29 C5876.16 3742.51, 5871.62 3759.69, 5866.91 3776.82 C5862.21 3793.96, 5857.36 3811.06, 5852.35 3828.11 C5847.35 3845.16, 5842.19 3862.17, 5836.88 3879.12 C5831.57 3896.08, 5826.1 3912.99, 5820.49 3929.85 C5814.88 3946.71, 5809.12 3963.53, 5803.21 3980.29 C5797.3 3997.04, 5791.23 4013.75, 5785.02 4030.4 C5778.81 4047.05, 5772.45 4063.65, 5765.95 4080.18 C5759.44 4096.72, 5752.79 4113.2, 5745.99 4129.61 C5739.19 4146.03, 5732.24 4162.39, 5725.15 4178.68 C5718.05 4194.98, 5710.82 4211.21, 5703.43 4227.37 C5696.05 4243.54, 5688.52 4259.64, 5680.86 4275.67 C5673.19 4291.7, 5665.37 4307.66, 5657.42 4323.55 C5649.47 4339.44, 5641.37 4355.26, 5633.13 4371.01 C5624.9 4386.75, 5616.52 4402.43, 5608 4418.02 C5599.48 4433.62, 5590.83 4449.14, 5582.04 4464.58 C5573.24 4480.03, 5564.31 4495.39, 5555.24 4510.67 C5546.18 4525.96, 5536.97 4541.16, 5527.63 4556.28 C5518.29 4571.39, 5508.82 4586.43, 5499.21 4601.38 C5489.6 4616.33, 5479.86 4631.19, 5469.99 4645.97 C5460.12 4660.74, 5450.11 4675.43, 5439.98 4690.03 C5429.84 4704.63, 5419.58 4719.13, 5409.18 4733.55 C5398.79 4747.96, 5388.27 4762.28, 5377.62 4776.51 C5366.97 4790.73, 5356.19 4804.87, 5345.29 4818.9 C5334.39 4832.93, 5323.36 4846.87, 5312.21 4860.71 C5301.06 4874.54, 5289.78 4888.28, 5278.39 4901.92 C5266.99 4915.55, 5255.48 4929.09, 5243.84 4942.52 C5232.2 4955.95, 5220.44 4969.27, 5208.57 4982.49 C5196.69 4995.71, 5184.7 5008.83, 5172.59 5021.83 C5160.48 5034.84, 5148.26 5047.74, 5135.92 5060.53 C5123.58 5073.31, 5111.12 5085.99, 5098.56 5098.56 C5085.99 5111.12, 5073.31 5123.58, 5060.53 5135.92 C5047.74 5148.26, 5034.84 5160.48, 5021.83 5172.59 C5008.83 5184.7, 4995.71 5196.69, 4982.49 5208.57 C4969.27 5220.44, 4955.95 5232.2, 4942.52 5243.84 C4929.09 5255.48, 4915.55 5266.99, 4901.92 5278.39 C4888.28 5289.78, 4874.54 5301.06, 4860.71 5312.21 C4846.87 5323.36, 4832.93 5334.39, 4818.9 5345.29 C4804.87 5356.19, 4790.73 5366.97, 4776.51 5377.62 C4762.28 5388.27, 4747.96 5398.79, 4733.55 5409.18 C4719.13 5419.58, 4704.63 5429.84, 4690.03 5439.98 C4675.43 5450.11, 4660.74 5460.12, 4645.97 5469.99 C4631.19 5479.86, 4616.33 5489.6, 4601.38 5499.21 C4586.43 5508.82, 4571.39 5518.29, 4556.28 5527.63 C4541.16 5536.97, 4525.96 5546.18, 4510.67 5555.24 C4495.39 5564.31, 4480.03 5573.24, 4464.58 5582.04 C4449.14 5590.83, 4433.62 5599.48, 4418.02 5608 C4402.43 5616.52, 4386.75 5624.9, 4371.01 5633.13 C4355.26 5641.37, 4339.44 5649.47, 4323.55 5657.42 C4307.66 5665.37, 4291.7 5673.19, 4275.67 5680.86 C4259.64 5688.52, 4243.54 5696.05, 4227.37 5703.43 C4211.21 5710.82, 4194.98 5718.05, 4178.68 5725.15 C4162.39 5732.24, 4146.03 5739.19, 4129.61 5745.99 C4113.2 5752.79, 4096.72 5759.44, 4080.18 5765.95 C4063.65 5772.45, 4047.05 5778.81, 4030.4 5785.02 C4013.75 5791.23, 3997.04 5797.3, 3980.29 5803.21 C3963.53 5809.12, 3946.71 5814.88, 3929.85 5820.49 C3912.99 5826.1, 3896.08 5831.57, 3879.12 5836.88 C3862.17 5842.19, 3845.16 5847.35, 3828.11 5852.35 C3811.06 5857.36, 3793.96 5862.21, 3776.82 5866.91 C3759.69 5871.62, 3742.51 5876.16, 3725.29 5880.56 C3708.07 5884.95, 3690.81 5889.2, 3673.52 5893.28 C3656.22 5897.37, 3638.89 5901.3, 3621.53 5905.08 C3604.16 5908.86, 3586.76 5912.48, 3569.34 5915.95 C3551.91 5919.41, 3534.45 5922.72, 3516.96 5925.88 C3499.47 5929.03, 3481.95 5932.03, 3464.41 5934.88 C3446.87 5937.72, 3429.3 5940.4, 3411.71 5942.93 C3394.12 5945.46, 3376.51 5947.83, 3358.88 5950.05 C3341.25 5952.26, 3323.59 5954.32, 3305.93 5956.22 C3288.26 5958.12, 3270.57 5959.86, 3252.87 5961.45 C3235.17 5963.03, 3217.46 5964.46, 3199.73 5965.72 C3182.01 5966.99, 3164.27 5968.1, 3146.53 5969.05 C3128.78 5970, 3111.03 5970.8, 3093.27 5971.43 C3075.51 5972.06, 3057.74 5972.54, 3039.98 5972.86 C3022.21 5973.17, 3004.44 5973.33, 2986.67 5973.33 C2968.9 5973.33, 2951.12 5973.17, 2933.36 5972.86 C2915.59 5972.54, 2897.82 5972.06, 2880.07 5971.43 C2862.31 5970.8, 2844.55 5970, 2826.81 5969.05 C2809.06 5968.1, 2791.32 5966.99, 2773.6 5965.72 C2755.88 5964.46, 2738.16 5963.03, 2720.46 5961.45 C2702.76 5959.86, 2685.07 5958.12, 2667.41 5956.22 C2649.74 5954.32, 2632.08 5952.26, 2614.45 5950.05 C2596.82 5947.83, 2579.21 5945.46, 2561.62 5942.93 C2544.03 5940.4, 2526.46 5937.72, 2508.92 5934.88 C2491.38 5932.03, 2473.86 5929.03, 2456.37 5925.88 C2438.89 5922.72, 2421.43 5919.41, 2404 5915.95 C2386.57 5912.48, 2369.17 5908.86, 2351.8 5905.08 C2334.44 5901.3, 2317.11 5897.37, 2299.82 5893.28 C2282.52 5889.2, 2265.26 5884.95, 2248.04 5880.56 C2230.83 5876.16, 2213.65 5871.62, 2196.51 5866.91 C2179.37 5862.21, 2162.28 5857.36, 2145.23 5852.35 C2128.18 5847.35, 2111.17 5842.19, 2094.21 5836.88 C2077.25 5831.57, 2060.34 5826.1, 2043.48 5820.49 C2026.62 5814.88, 2009.81 5809.12, 1993.05 5803.21 C1976.29 5797.3, 1959.58 5791.23, 1942.93 5785.02 C1926.28 5778.81, 1909.69 5772.45, 1893.15 5765.95 C1876.62 5759.44, 1860.14 5752.79, 1843.72 5745.99 C1827.3 5739.19, 1810.94 5732.24, 1794.65 5725.15 C1778.36 5718.05, 1762.12 5710.82, 1745.96 5703.43 C1729.8 5696.05, 1713.7 5688.52, 1697.67 5680.86 C1681.64 5673.19, 1665.67 5665.37, 1649.78 5657.42 C1633.89 5649.47, 1618.07 5641.37, 1602.33 5633.13 C1586.58 5624.9, 1570.91 5616.52, 1555.31 5608 C1539.71 5599.48, 1524.19 5590.83, 1508.75 5582.04 C1493.31 5573.24, 1477.94 5564.31, 1462.66 5555.24 C1447.38 5546.18, 1432.17 5536.97, 1417.06 5527.63 C1401.94 5518.29, 1386.9 5508.82, 1371.95 5499.21 C1357 5489.6, 1342.14 5479.86, 1327.36 5469.99 C1312.59 5460.12, 1297.9 5450.11, 1283.3 5439.98 C1268.71 5429.84, 1254.2 5419.58, 1239.79 5409.18 C1225.37 5398.79, 1211.05 5388.27, 1196.82 5377.62 C1182.6 5366.97, 1168.47 5356.19, 1154.43 5345.29 C1140.4 5334.39, 1126.46 5323.36, 1112.63 5312.21 C1098.79 5301.06, 1085.05 5289.78, 1071.42 5278.39 C1057.78 5266.99, 1044.25 5255.48, 1030.82 5243.84 C1017.39 5232.2, 1004.06 5220.44, 990.84 5208.57 C977.62 5196.69, 964.5 5184.7, 951.5 5172.59 C938.49 5160.48, 925.59 5148.26, 912.81 5135.92 C900.02 5123.58, 887.34 5111.12, 874.77 5098.56 C862.21 5085.99, 849.75 5073.31, 837.42 5060.53 C825.08 5047.74, 812.85 5034.84, 800.74 5021.83 C788.63 5008.83, 776.64 4995.71, 764.76 4982.49 C752.89 4969.27, 741.13 4955.95, 729.49 4942.52 C717.86 4929.09, 706.34 4915.55, 694.94 4901.92 C683.55 4888.28, 672.27 4874.54, 661.12 4860.71 C649.97 4846.87, 638.95 4832.93, 628.04 4818.9 C617.14 4804.87, 606.37 4790.73, 595.72 4776.51 C585.07 4762.28, 574.54 4747.96, 564.15 4733.55 C553.76 4719.13, 543.49 4704.63, 533.36 4690.03 C523.22 4675.43, 513.22 4660.74, 503.34 4645.97 C493.47 4631.19, 483.73 4616.33, 474.12 4601.38 C464.52 4586.43, 455.04 4571.39, 445.7 4556.28 C436.36 4541.16, 427.16 4525.96, 418.09 4510.67 C409.02 4495.39, 400.09 4480.03, 391.3 4464.58 C382.5 4449.14, 373.85 4433.62, 365.33 4418.02 C356.82 4402.43, 348.44 4386.75, 340.2 4371.01 C331.96 4355.26, 323.87 4339.44, 315.91 4323.55 C307.96 4307.66, 300.15 4291.7, 292.48 4275.67 C284.81 4259.64, 277.28 4243.54, 269.9 4227.37 C262.52 4211.21, 255.28 4194.98, 248.19 4178.68 C241.09 4162.39, 234.15 4146.03, 227.35 4129.61 C220.55 4113.2, 213.89 4096.72, 207.39 4080.18 C200.88 4063.65, 194.52 4047.05, 188.31 4030.4 C182.1 4013.75, 176.04 3997.04, 170.13 3980.29 C164.21 3963.53, 158.45 3946.71, 152.84 3929.85 C147.23 3912.99, 141.77 3896.08, 136.46 3879.12 C131.15 3862.17, 125.99 3845.16, 120.98 3828.11 C115.97 3811.06, 111.12 3793.96, 106.42 3776.82 C101.72 3759.69, 97.17 3742.51, 92.77 3725.29 C88.38 3708.07, 84.14 3690.81, 80.05 3673.52 C75.96 3656.22, 72.03 3638.89, 68.25 3621.53 C64.48 3604.16, 60.85 3586.76, 57.39 3569.34 C53.92 3551.91, 50.61 3534.45, 47.45 3516.96 C44.3 3499.47, 41.3 3481.95, 38.46 3464.41 C35.62 3446.87, 32.93 3429.3, 30.4 3411.71 C27.87 3394.12, 25.5 3376.51, 23.28 3358.88 C21.07 3341.25, 19.01 3323.59, 17.11 3305.93 C15.21 3288.26, 13.47 3270.57, 11.89 3252.87 C10.3 3235.17, 8.88 3217.46, 7.61 3199.73 C6.34 3182.01, 5.23 3164.27, 4.28 3146.53 C3.33 3128.78, 2.54 3111.03, 1.9 3093.27 C1.27 3075.51, 0.79 3057.74, 0.48 3039.98 C0.16 3022.21, 0 3004.44, 0 2986.67 C0 2968.9, 0.16 2951.12, 0.48 2933.36 C0.79 2915.59, 1.27 2897.82, 1.9 2880.07 C2.54 2862.31, 3.33 2844.55, 4.28 2826.81 C5.23 2809.06, 6.34 2791.32, 7.61 2773.6 C8.88 2755.88, 10.3 2738.16, 11.89 2720.46 C13.47 2702.76, 15.21 2685.07, 17.11 2667.41 C19.01 2649.74, 21.07 2632.08, 23.28 2614.45 C25.5 2596.82, 27.87 2579.21, 30.4 2561.62 C32.93 2544.03, 35.62 2526.46, 38.46 2508.92 C41.3 2491.38, 44.3 2473.86, 47.45 2456.37 C50.61 2438.89, 53.92 2421.43, 57.39 2404 C60.85 2386.57, 64.48 2369.17, 68.25 2351.8 C72.03 2334.44, 75.96 2317.11, 80.05 2299.82 C84.14 2282.52, 88.38 2265.26, 92.77 2248.04 C97.17 2230.83, 101.72 2213.65, 106.42 2196.51 C111.12 2179.37, 115.97 2162.28, 120.98 2145.23 C125.99 2128.18, 131.15 2111.17, 136.46 2094.21 C141.77 2077.25, 147.23 2060.34, 152.84 2043.48 C158.45 2026.62, 164.21 2009.81, 170.13 1993.05 C176.04 1976.29, 182.1 1959.58, 188.31 1942.93 C194.52 1926.28, 200.88 1909.69, 207.39 1893.15 C213.89 1876.62, 220.55 1860.14, 227.35 1843.72 C234.15 1827.3, 241.09 1810.94, 248.19 1794.65 C255.28 1778.36, 262.52 1762.12, 269.9 1745.96 C277.28 1729.8, 284.81 1713.7, 292.48 1697.67 C300.15 1681.64, 307.96 1665.67, 315.91 1649.78 C323.87 1633.89, 331.96 1618.07, 340.2 1602.33 C348.44 1586.58, 356.82 1570.91, 365.33 1555.31 C373.85 1539.71, 382.5 1524.19, 391.3 1508.75 C400.09 1493.31, 409.02 1477.94, 418.09 1462.66 C427.16 1447.38, 436.36 1432.17, 445.7 1417.06 C455.04 1401.94, 464.52 1386.9, 474.12 1371.95 C483.73 1357, 493.47 1342.14, 503.34 1327.36 C513.22 1312.59, 523.22 1297.9, 533.36 1283.3 C543.49 1268.71, 553.76 1254.2, 564.15 1239.79 C574.54 1225.37, 585.07 1211.05, 595.72 1196.82 C606.37 1182.6, 617.14 1168.47, 628.04 1154.43 C638.95 1140.4, 649.97 1126.46, 661.12 1112.63 C672.27 1098.79, 683.55 1085.05, 694.94 1071.42 C706.34 1057.78, 717.86 1044.25, 729.49 1030.82 C741.13 1017.39, 752.89 1004.06, 764.76 990.84 C776.64 977.62, 788.63 964.5, 800.74 951.5 C812.85 938.49, 825.08 925.59, 837.42 912.81 C849.75 900.02, 862.21 887.34, 874.77 874.77 C887.34 862.21, 900.02 849.75, 912.81 837.42 C925.59 825.08, 938.49 812.85, 951.5 800.74 C964.5 788.63, 977.62 776.64, 990.84 764.76 C1004.06 752.89, 1017.39 741.13, 1030.82 729.49 C1044.25 717.86, 1057.78 706.34, 1071.42 694.94 C1085.05 683.55, 1098.79 672.27, 1112.63 661.12 C1126.46 649.97, 1140.4 638.95, 1154.43 628.04 C1168.47 617.14, 1182.6 606.37, 1196.82 595.72 C1211.05 585.07, 1225.37 574.54, 1239.79 564.15 C1254.2 553.76, 1268.71 543.49, 1283.3 533.36 C1297.9 523.22, 1312.59 513.22, 1327.36 503.34 C1342.14 493.47, 1357 483.73, 1371.95 474.12 C1386.9 464.52, 1401.94 455.04, 1417.06 445.7 C1432.17 436.36, 1447.38 427.16, 1462.66 418.09 C1477.94 409.02, 1493.31 400.09, 1508.75 391.3 C1524.19 382.5, 1539.71 373.85, 1555.31 365.33 C1570.91 356.82, 1586.58 348.44, 1602.33 340.2 C1618.07 331.96, 1633.89 323.87, 1649.78 315.91 C1665.67 307.96, 1681.64 300.15, 1697.67 292.48 C1713.7 284.81, 1729.8 277.28, 1745.96 269.9 C1762.12 262.52, 1778.36 255.28, 1794.65 248.19 C1810.94 241.09, 1827.3 234.15, 1843.72 227.35 C1860.14 220.55, 1876.62 213.89, 1893.15 207.39 C1909.69 200.88, 1926.28 194.52, 1942.93 188.31 C1959.58 182.1, 1976.29 176.04, 1993.05 170.13 C2009.81 164.21, 2026.62 158.45, 2043.48 152.84 C2060.34 147.23, 2077.25 141.77, 2094.21 136.46 C2111.17 131.15, 2128.18 125.99, 2145.23 120.98 C2162.28 115.97, 2179.37 111.12, 2196.51 106.42 C2213.65 101.72, 2230.83 97.17, 2248.04 92.77 C2265.26 88.38, 2282.52 84.14, 2299.82 80.05 C2317.11 75.96, 2334.44 72.03, 2351.8 68.25 C2369.17 64.48, 2386.57 60.85, 2404 57.39 C2421.43 53.92, 2438.89 50.61, 2456.37 47.45 C2473.86 44.3, 2491.38 41.3, 2508.92 38.46 C2526.46 35.62, 2544.03 32.93, 2561.62 30.4 C2579.21 27.87, 2596.82 25.5, 2614.45 23.28 C2632.08 21.07, 2649.74 19.01, 2667.41 17.11 C2685.07 15.21, 2702.76 13.47, 2720.46 11.89 C2738.16 10.3, 2755.88 8.88, 2773.6 7.61 C2791.32 6.34, 2809.06 5.23, 2826.81 4.28 C2844.55 3.33, 2862.31 2.54, 2880.07 1.9 C2897.82 1.27, 2915.59 0.79, 2933.36 0.48 C2951.12 0.16, 2968.9 0, 2986.67 0 C3004.44 0, 3022.21 0.16, 3039.98 0.48 C3057.74 0.79, 3075.51 1.27, 3093.27 1.9 C3111.03 2.54, 3128.78 3.33, 3146.53 4.28 C3164.27 5.23, 3182.01 6.34, 3199.73 7.61 C3217.46 8.88, 3235.17 10.3, 3252.87 11.89 C3270.57 13.47, 3288.26 15.21, 3305.93 17.11 C3323.59 19.01, 3341.25 21.07, 3358.88 23.28 C3376.51 25.5, 3394.12 27.87, 3411.71 30.4 C3429.3 32.93, 3446.87 35.62, 3464.41 38.46 C3481.95 41.3, 3499.47 44.3, 3516.96 47.45 C3534.45 50.61, 3551.91 53.92, 3569.34 57.39 C3586.76 60.85, 3604.16 64.48, 3621.53 68.25 C3638.89 72.03, 3656.22 75.96, 3673.52 80.05 C3690.81 84.14, 3708.07 88.38, 3725.29 92.77 C3742.51 97.17, 3759.69 101.72, 3776.82 106.42 C3793.96 111.12, 3811.06 115.97, 3828.11 120.98 C3845.16 125.99, 3862.17 131.15, 3879.12 136.46 C3896.08 141.77, 3912.99 147.23, 3929.85 152.84 C3946.71 158.45, 3963.53 164.21, 3980.29 170.13 C3997.04 176.04, 4013.75 182.1, 4030.4 188.31 C4047.05 194.52, 4063.65 200.88, 4080.18 207.39 C4096.72 213.89, 4113.2 220.55, 4129.61 227.35 C4146.03 234.15, 4162.39 241.09, 4178.68 248.19 C4194.98 255.28, 4211.21 262.52, 4227.37 269.9 C4243.54 277.28, 4259.64 284.81, 4275.67 292.48 C4291.7 300.15, 4307.66 307.96, 4323.55 315.91 C4339.44 323.87, 4355.26 331.96, 4371.01 340.2 C4386.75 348.44, 4402.43 356.82, 4418.02 365.33 C4433.62 373.85, 4449.14 382.5, 4464.58 391.3 C4480.03 400.09, 4495.39 409.02, 4510.67 418.09 C4525.96 427.16, 4541.16 436.36, 4556.28 445.7 C4571.39 455.04, 4586.43 464.52, 4601.38 474.12 C4616.33 483.73, 4631.19 493.47, 4645.97 503.34 C4660.74 513.22, 4675.43 523.22, 4690.03 533.36 C4704.63 543.49, 4719.13 553.76, 4733.55 564.15 C4747.96 574.54, 4762.28 585.07, 4776.51 595.72 C4790.73 606.37, 4804.87 617.14, 4818.9 628.04 C4832.93 638.95, 4846.87 649.97, 4860.71 661.12 C4874.54 672.27, 4888.28 683.55, 4901.92 694.94 C4915.55 706.34, 4929.09 717.86, 4942.52 729.49 C4955.95 741.13, 4969.27 752.89, 4982.49 764.76 C4995.71 776.64, 5008.83 788.63, 5021.83 800.74 C5034.84 812.85, 5047.74 825.08, 5060.53 837.42 C5073.31 849.75, 5085.99 862.21, 5098.56 874.77 C5111.12 887.34, 5123.58 900.02, 5135.92 912.81 C5148.26 925.59, 5160.48 938.49, 5172.59 951.5 C5184.7 964.5, 5196.69 977.62, 5208.57 990.84 C5220.44 1004.06, 5232.2 1017.39, 5243.84 1030.82 C5255.48 1044.25, 5266.99 1057.78, 5278.39 1071.42 C5289.78 1085.05, 5301.06 1098.79, 5312.21 1112.63 C5323.36 1126.46, 5334.39 1140.4, 5345.29 1154.43 C5356.19 1168.47, 5366.97 1182.6, 5377.62 1196.82 C5388.27 1211.05, 5398.79 1225.37, 5409.18 1239.79 C5419.58 1254.2, 5429.84 1268.71, 5439.98 1283.3 C5450.11 1297.9, 5460.12 1312.59, 5469.99 1327.36 C5479.86 1342.14, 5489.6 1357, 5499.21 1371.95 C5508.82 1386.9, 5518.29 1401.94, 5527.63 1417.06 C5536.97 1432.17, 5546.18 1447.38, 5555.24 1462.66 C5564.31 1477.94, 5573.24 1493.31, 5582.04 1508.75 C5590.83 1524.19, 5599.48 1539.71, 5608 1555.31 C5616.52 1570.91, 5624.9 1586.58, 5633.13 1602.33 C5641.37 1618.07, 5649.47 1633.89, 5657.42 1649.78 C5665.37 1665.67, 5673.19 1681.64, 5680.86 1697.67 C5688.52 1713.7, 5696.05 1729.8, 5703.43 1745.96 C5710.82 1762.12, 5718.05 1778.36, 5725.15 1794.65 C5732.24 1810.94, 5739.19 1827.3, 5745.99 1843.72 C5752.79 1860.14, 5759.44 1876.62, 5765.95 1893.15 C5772.45 1909.69, 5778.81 1926.28, 5785.02 1942.93 C5791.23 1959.58, 5797.3 1976.29, 5803.21 1993.05 C5809.12 2009.81, 5814.88 2026.62, 5820.49 2043.48 C5826.1 2060.34, 5831.57 2077.25, 5836.88 2094.21 C5842.19 2111.17, 5847.35 2128.18, 5852.35 2145.23 C5857.36 2162.28, 5862.21 2179.37, 5866.91 2196.51 C5871.62 2213.65, 5876.16 2230.83, 5880.56 2248.04 C5884.95 2265.26, 5889.2 2282.52, 5893.28 2299.82 C5897.37 2317.11, 5901.3 2334.44, 5905.08 2351.8 C5908.86 2369.17, 5912.48 2386.57, 5915.95 2404 C5919.41 2421.43, 5922.72 2438.89, 5925.88 2456.37 C5929.03 2473.86, 5932.03 2491.38, 5934.88 2508.92 C5937.72 2526.46, 5940.4 2544.03, 5942.93 2561.62 C5945.46 2579.21, 5947.83 2596.82, 5950.05 2614.45 C5952.26 2632.08, 5954.32 2649.74, 5956.22 2667.41 C5958.12 2685.07, 5959.86 2702.76, 5961.45 2720.46 C5963.03 2738.16, 5964.46 2755.88, 5965.72 2773.6 C5966.99 2791.32, 5968.1 2809.06, 5969.05 2826.81 C5970 2844.55, 5970.8 2862.31, 5971.43 2880.07 C5972.06 2897.82, 5972.54 2915.59, 5972.86 2933.36 C5973.17 2951.12, 5973.33 2968.9, 5973.33 2986.67"
      stroke="transparent" stroke-width="1" fill="none"></path>
  </g>
</svg>