<svg version="1.1" xmlns="http://www.w3.org/2000/svg" viewBox="0 0 2490.0001525878906 2533.3334350585938" width="2490.0001525878906" height="2533.3334350585938">
  <!-- svg-source:excalidraw -->
  
  <defs>
    <style class="style-fonts">
      @font-face {
        font-family: "Virgil";
        src: url("https://excalidraw.com/Virgil.woff2");
      }
      @font-face {
        font-family: "Cascadia";
        src: url("https://excalidraw.com/Cascadia.woff2");
      }
      @font-face {
        font-family: "Assistant";
        src: url("https://excalidraw.com/Assistant-Regular.woff2");
      }
    </style>
    
  </defs>
  <rect x="0" y="0" width="2490.0001525878906" height="2533.3334350585938" fill="#ffffff"></rect><g stroke-linecap="round" transform="translate(10 10) rotate(0 1235.0000762939453 1256.6667175292969)"><path d="M32 0 C766.6 -0.82, 1501.53 -0.69, 2438 0 C2457.55 0.76, 2467.19 8.08, 2470 32 C2476.43 929.06, 2479.16 1823.23, 2470 2481.33 C2467.94 2503.07, 2460.23 2514.36, 2438 2513.33 C1560.9 2519.91, 682.28 2520.27, 32 2513.33 C13.82 2514.02, -3.01 2504.24, 0 2481.33 C-9.26 1652.4, -9.58 823.72, 0 32 C-2.49 13.98, 9.21 -3.34, 32 0" stroke="none" stroke-width="0" fill="#12b886"></path><path d="M32 0 C543.18 0.45, 1052.25 0.35, 2438 0 M32 0 C794.51 -6.39, 1556.76 -6.38, 2438 0 M2438 0 C2459.32 1.77, 2471.4 10.79, 2470 32 M2438 0 C2460.06 1.45, 2469.97 12.58, 2470 32 M2470 32 C2479.62 845.79, 2479.56 1658.71, 2470 2481.33 M2470 32 C2469.11 547.85, 2468.86 1063.28, 2470 2481.33 M2470 2481.33 C2471.89 2501.92, 2460.95 2515.2, 2438 2513.33 M2470 2481.33 C2469.83 2500.57, 2460.68 2512.6, 2438 2513.33 M2438 2513.33 C1821.15 2504.53, 1202.75 2504.7, 32 2513.33 M2438 2513.33 C1861.54 2505.22, 1284.44 2505.57, 32 2513.33 M32 2513.33 C10.8 2512.72, -1.18 2502.81, 0 2481.33 M32 2513.33 C10.82 2514.57, 1.11 2500.42, 0 2481.33 M0 2481.33 C5.64 1604.77, 5.23 726.22, 0 32 M0 2481.33 C3.14 1740.56, 2.68 999.25, 0 32 M0 32 C0.85 11.53, 9.62 -1.15, 32 0 M0 32 C1.42 11.86, 9.4 -2.29, 32 0" stroke="transparent" stroke-width="1" fill="none"></path></g><g stroke-linecap="round" transform="translate(1953.3331298828125 776.6664886474609) rotate(3.241821758735875 158.33328247070312 666.6666030883789)"><path d="M32 0 C85.4 0, 138.8 0, 284.67 0 C306 0, 316.67 10.67, 316.67 32 C316.67 528.75, 316.67 1025.51, 316.67 1301.33 C316.67 1322.67, 306 1333.33, 284.67 1333.33 C214.31 1333.33, 143.96 1333.33, 32 1333.33 C10.67 1333.33, 0 1322.67, 0 1301.33 C0 1007.25, 0 713.16, 0 32 C0 10.67, 10.67 0, 32 0" stroke="none" stroke-width="0" fill="#ffec99"></path><path d="M32 0 C99.4 0, 166.79 0, 284.67 0 M32 0 C92.16 0, 152.32 0, 284.67 0 M284.67 0 C306 0, 316.67 10.67, 316.67 32 M284.67 0 C306 0, 316.67 10.67, 316.67 32 M316.67 32 C316.67 377.79, 316.67 723.58, 316.67 1301.33 M316.67 32 C316.67 386.31, 316.67 740.63, 316.67 1301.33 M316.67 1301.33 C316.67 1322.67, 306 1333.33, 284.67 1333.33 M316.67 1301.33 C316.67 1322.67, 306 1333.33, 284.67 1333.33 M284.67 1333.33 C196.03 1333.33, 107.39 1333.33, 32 1333.33 M284.67 1333.33 C208.81 1333.33, 132.95 1333.33, 32 1333.33 M32 1333.33 C10.67 1333.33, 0 1322.67, 0 1301.33 M32 1333.33 C10.67 1333.33, 0 1322.67, 0 1301.33 M0 1301.33 C0 858.19, 0 415.04, 0 32 M0 1301.33 C0 889.41, 0 477.48, 0 32 M0 32 C0 10.67, 10.67 0, 32 0 M0 32 C0 10.67, 10.67 0, 32 0" stroke="transparent" stroke-width="1" fill="none"></path></g><g stroke-linecap="round" transform="translate(256.6664123535156 779.9999237060547) rotate(356.75817824126415 158.33328247070312 666.6666030883789)"><path d="M32 0 C112.64 0, 193.27 0, 284.67 0 C306 0, 316.67 10.67, 316.67 32 C316.67 352.9, 316.67 673.81, 316.67 1301.33 C316.67 1322.67, 306 1333.33, 284.67 1333.33 C203.63 1333.33, 122.59 1333.33, 32 1333.33 C10.67 1333.33, 0 1322.67, 0 1301.33 C0 818.6, 0 335.86, 0 32 C0 10.67, 10.67 0, 32 0" stroke="none" stroke-width="0" fill="#ffec99"></path><path d="M32 0 C103.98 0, 175.95 0, 284.67 0 M32 0 C90.68 0, 149.36 0, 284.67 0 M284.67 0 C306 0, 316.67 10.67, 316.67 32 M284.67 0 C306 0, 316.67 10.67, 316.67 32 M316.67 32 C316.67 393.97, 316.67 755.93, 316.67 1301.33 M316.67 32 C316.67 506.2, 316.67 980.4, 316.67 1301.33 M316.67 1301.33 C316.67 1322.67, 306 1333.33, 284.67 1333.33 M316.67 1301.33 C316.67 1322.67, 306 1333.33, 284.67 1333.33 M284.67 1333.33 C185.7 1333.33, 86.73 1333.33, 32 1333.33 M284.67 1333.33 C201.25 1333.33, 117.84 1333.33, 32 1333.33 M32 1333.33 C10.67 1333.33, 0 1322.67, 0 1301.33 M32 1333.33 C10.67 1333.33, 0 1322.67, 0 1301.33 M0 1301.33 C0 1028.31, 0 755.28, 0 32 M0 1301.33 C0 925.7, 0 550.07, 0 32 M0 32 C0 10.67, 10.67 0, 32 0 M0 32 C0 10.67, 10.67 0, 32 0" stroke="transparent" stroke-width="1" fill="none"></path></g><g stroke-linecap="round" transform="translate(639.9996948242188 1703.3334350585938) rotate(0 621.6667175292969 133.33328247070312)"><path d="M32 0 C480.62 0, 929.25 0, 1211.33 0 C1232.67 0, 1243.33 10.67, 1243.33 32 C1243.33 84.22, 1243.33 136.44, 1243.33 234.67 C1243.33 256, 1232.67 266.67, 1211.33 266.67 C943.16 266.67, 674.99 266.67, 32 266.67 C10.67 266.67, 0 256, 0 234.67 C0 170.84, 0 107.02, 0 32 C0 10.67, 10.67 0, 32 0" stroke="none" stroke-width="0" fill="#ffec99"></path><path d="M32 0 C466.87 0, 901.74 0, 1211.33 0 M32 0 C416.51 0, 801.02 0, 1211.33 0 M1211.33 0 C1232.67 0, 1243.33 10.67, 1243.33 32 M1211.33 0 C1232.67 0, 1243.33 10.67, 1243.33 32 M1243.33 32 C1243.33 111.96, 1243.33 191.92, 1243.33 234.67 M1243.33 32 C1243.33 107.81, 1243.33 183.61, 1243.33 234.67 M1243.33 234.67 C1243.33 256, 1232.67 266.67, 1211.33 266.67 M1243.33 234.67 C1243.33 256, 1232.67 266.67, 1211.33 266.67 M1211.33 266.67 C802 266.67, 392.67 266.67, 32 266.67 M1211.33 266.67 C787.91 266.67, 364.49 266.67, 32 266.67 M32 266.67 C10.67 266.67, 0 256, 0 234.67 M32 266.67 C10.67 266.67, 0 256, 0 234.67 M0 234.67 C0 160.87, 0 87.06, 0 32 M0 234.67 C0 160.99, 0 87.31, 0 32 M0 32 C0 10.67, 10.67 0, 32 0 M0 32 C0 10.67, 10.67 0, 32 0" stroke="transparent" stroke-width="1" fill="none"></path></g><g stroke-linecap="round" transform="translate(639.9996948242188 1270.0003051757812) rotate(0 621.6667175292969 206.66656494140625)"><path d="M32 0 C497.85 0, 963.7 0, 1211.33 0 C1232.67 0, 1243.33 10.67, 1243.33 32 C1243.33 119.38, 1243.33 206.76, 1243.33 381.33 C1243.33 402.67, 1232.67 413.33, 1211.33 413.33 C964.96 413.33, 718.59 413.33, 32 413.33 C10.67 413.33, 0 402.67, 0 381.33 C0 262.95, 0 144.58, 0 32 C0 10.67, 10.67 0, 32 0" stroke="none" stroke-width="0" fill="#ffec99"></path><path d="M32 0 C370.47 0, 708.94 0, 1211.33 0 M32 0 C368.43 0, 704.86 0, 1211.33 0 M1211.33 0 C1232.67 0, 1243.33 10.67, 1243.33 32 M1211.33 0 C1232.67 0, 1243.33 10.67, 1243.33 32 M1243.33 32 C1243.33 113.2, 1243.33 194.41, 1243.33 381.33 M1243.33 32 C1243.33 127.56, 1243.33 223.11, 1243.33 381.33 M1243.33 381.33 C1243.33 402.67, 1232.67 413.33, 1211.33 413.33 M1243.33 381.33 C1243.33 402.67, 1232.67 413.33, 1211.33 413.33 M1211.33 413.33 C939.48 413.33, 667.63 413.33, 32 413.33 M1211.33 413.33 C817.6 413.33, 423.87 413.33, 32 413.33 M32 413.33 C10.67 413.33, 0 402.67, 0 381.33 M32 413.33 C10.67 413.33, 0 402.67, 0 381.33 M0 381.33 C0 308.11, 0 234.89, 0 32 M0 381.33 C0 273.7, 0 166.06, 0 32 M0 32 C0 10.67, 10.67 0, 32 0 M0 32 C0 10.67, 10.67 0, 32 0" stroke="transparent" stroke-width="1" fill="none"></path></g><g stroke-linecap="round" transform="translate(684.9998474121094 396.66656494140625) rotate(0 576.6665649414062 403.33335876464844)"><path d="M32 0 C281.14 0, 530.28 0, 1121.33 0 C1142.67 0, 1153.33 10.67, 1153.33 32 C1153.33 329.02, 1153.33 626.04, 1153.33 774.67 C1153.33 796, 1142.67 806.67, 1121.33 806.67 C890.23 806.67, 659.13 806.67, 32 806.67 C10.67 806.67, 0 796, 0 774.67 C0 574.83, 0 374.99, 0 32 C0 10.67, 10.67 0, 32 0" stroke="none" stroke-width="0" fill="#ffec99"></path><path d="M32 0 C394.26 0, 756.51 0, 1121.33 0 M32 0 C362.28 0, 692.56 0, 1121.33 0 M1121.33 0 C1142.67 0, 1153.33 10.67, 1153.33 32 M1121.33 0 C1142.67 0, 1153.33 10.67, 1153.33 32 M1153.33 32 C1153.33 264.29, 1153.33 496.58, 1153.33 774.67 M1153.33 32 C1153.33 254.36, 1153.33 476.72, 1153.33 774.67 M1153.33 774.67 C1153.33 796, 1142.67 806.67, 1121.33 806.67 M1153.33 774.67 C1153.33 796, 1142.67 806.67, 1121.33 806.67 M1121.33 806.67 C856.21 806.67, 591.09 806.67, 32 806.67 M1121.33 806.67 C706.45 806.67, 291.57 806.67, 32 806.67 M32 806.67 C10.67 806.67, 0 796, 0 774.67 M32 806.67 C10.67 806.67, 0 796, 0 774.67 M0 774.67 C0 519.65, 0 264.63, 0 32 M0 774.67 C0 589.89, 0 405.11, 0 32 M0 32 C0 10.67, 10.67 0, 32 0 M0 32 C0 10.67, 10.67 0, 32 0" stroke="transparent" stroke-width="1" fill="none"></path></g></svg>